<svg width="920" height="222" viewBox="0 0 920 222" fill="none" xmlns="http://www.w3.org/2000/svg">
<defs>
<linearGradient id="textGrad" x1="435" y1="70" x2="890" y2="160" gradientUnits="userSpaceOnUse">
<stop stop-color="#00D4FF"/>
<stop offset="0.55" stop-color="#7C3AED"/>
<stop offset="1" stop-color="#FF2D95"/>
</linearGradient>
</defs>
<g>

<path d="M169 1H53C24.2812 1 1 24.2812 1 53V169C1 197.719 24.2812 221 53 221H169C197.719 221 221 197.719 221 169V53C221 24.2812 197.719 1 169 1Z" fill="#091018" stroke="#263042" stroke-width="2"/>
<path d="M161.12 53H104.88C101.821 53.0987 98.7133 53.6907 95.556 54.776C91.116 56.7493 86.824 59.1667 82.68 62.028C78.9307 65.58 75.872 68.7867 73.504 71.648C70.6427 76.088 68.0773 80.824 65.808 85.856C64.4267 91.184 63.5387 95.5747 63.144 99.028C63.44 102.481 63.9333 105.293 64.624 107.464C66.8933 111.213 69.2613 114.321 71.728 116.788C73.9973 118.367 76.8093 119.896 80.164 121.376C82.236 121.869 84.604 122.264 87.268 122.56H124.12C125.304 123.053 126.439 123.843 127.524 124.928C128.116 126.408 128.412 128.085 128.412 129.96C127.82 131.736 126.685 133.759 125.008 136.028C122.837 137.607 120.716 138.791 118.644 139.58C117.263 139.777 106.064 139.925 85.048 140.024C80.608 140.912 76.612 142.096 73.06 143.576C70.5933 145.155 68.5213 146.684 66.844 148.164C65.068 150.236 63.5387 152.308 62.256 154.38C61.1707 157.143 60.0853 160.941 59 165.776C59 167.059 59.2467 168.095 59.74 168.884C60.4307 169.279 79.276 169.476 116.276 169.476C118.94 169.18 122.591 168.391 127.228 167.108C132.161 164.641 136.108 162.323 139.068 160.152C142.817 156.501 146.665 152.012 150.612 146.684C152.585 142.935 154.361 139.037 155.94 134.992C157.124 130.355 157.913 126.556 158.308 123.596C158.308 121.327 158.16 119.255 157.864 117.38C156.581 114.124 155.003 111.213 153.128 108.648C150.957 106.675 148.836 105.047 146.764 103.764C144.001 102.58 141.091 101.643 138.032 100.952C131.619 100.755 118.249 100.656 97.924 100.656C96.5427 100.064 95.3093 99.176 94.224 97.992C93.7307 96.512 93.484 95.1307 93.484 93.848C94.076 91.8747 94.9147 90.0493 96 88.372C98.2693 86.3987 100.637 84.8693 103.104 83.784C105.077 83.488 116.227 83.2907 136.552 83.192C140.992 82.4027 144.347 81.6133 146.616 80.824C148.589 79.8373 150.859 78.456 153.424 76.68C155.397 74.7067 157.075 72.7827 158.456 70.908C159.541 68.836 160.528 66.468 161.416 63.804C162.501 58.3773 162.896 55.1707 162.6 54.184L161.12 53Z" fill="url(#paint0_linear_2_7)"/>
<defs>
<linearGradient id="paint0_linear_2_7" x1="59" y1="53" x2="174.694" y2="155.999" gradientUnits="userSpaceOnUse">
<stop stop-color="#00D4FF"/>
<stop offset="0.55" stop-color="#7C3AED"/>
<stop offset="1" stop-color="#FF2D95"/>
</linearGradient>
</defs>

</g>
<text x="260" y="138" font-family="Inter, Arial, sans-serif" font-size="86" font-style="italic" font-weight="800" letter-spacing="-2">
<tspan fill="#0F1115">Sesh</tspan><tspan fill="url(#textGrad)">Score</tspan>
</text>
</svg>